<svg width="120" height="149" viewBox="0 0 120 149" fill="none" xmlns="http://www.w3.org/2000/svg">
<path d="M113.098 19.2428H6.90161L24.5449 143.209C24.9919 146.352 27.6826 148.688 30.8578 148.688H89.1421C92.3172 148.688 95.008 146.352 95.455 143.209L113.098 19.2428Z" fill="#F3E8D7"/>
<path d="M95.6559 19.2428L77.2322 148.688H89.1411C92.3163 148.688 95.0082 146.352 95.4551 143.209L113.098 19.2428H95.6559Z" fill="#E5D8C6"/>
<path d="M102.092 0H17.9075C16.7096 0 15.6762 0.841723 15.4334 2.01582L11.5674 20.7561H108.432L104.566 2.01582C104.324 0.841723 103.29 0 102.092 0V0Z" fill="#464C50"/>
<path d="M105.626 7.15578L104.566 2.01582C104.324 0.841723 103.29 0 102.092 0H87.0071L87.8295 3.98741C88.5022 7.24767 86.0134 8.80519 82.685 8.80519H14.0324L11.5674 20.7572H108.432L105.626 7.15578Z" fill="#31363B"/>
<path d="M116.281 31.1347H3.71856C1.66416 31.1347 0 29.4705 0 27.4161V17.556C0 15.5027 1.6653 13.8374 3.71856 13.8374H116.281C118.335 13.8374 120 15.5027 120 17.556V27.4161C120 29.4705 118.335 31.1347 116.281 31.1347Z" fill="#464C50"/>
<path d="M116.281 13.8374H102.732V16.9354C102.732 22.8196 99.8225 26.0934 93.9383 26.0934H5.58124C3.52684 26.0934 1.86268 24.4293 1.86268 22.376L0 27.4161C0 29.4705 1.6653 31.1347 3.71856 31.1347H116.281C118.335 31.1347 120 29.4705 120 27.4161V17.556C120 15.5027 118.335 13.8374 116.281 13.8374Z" fill="#31363B"/>
<path d="M19.016 127.784L7.94538 50.002C7.68901 48.1961 9.08999 46.5807 10.9141 46.5807H109.086C110.909 46.5807 112.311 48.1961 112.054 50.002L100.984 127.784C100.773 129.262 99.5083 130.361 98.0154 130.361H21.9847C20.4918 130.361 19.227 129.262 19.016 127.784Z" fill="white"/>
<path d="M109.086 46.5807H95.1727L83.249 130.361H98.0155C99.5083 130.361 100.773 129.262 100.984 127.784L112.055 50.002C112.311 48.1961 110.91 46.5807 109.086 46.5807Z" fill="#E4E4E4"/>
<path d="M75.3149 71.5805C68.7275 64.993 56.5293 66.5097 48.0712 74.9689C39.612 83.427 38.0953 95.6252 44.6828 102.213C51.2702 108.8 63.4684 107.283 71.9265 98.8242C80.3857 90.3661 81.9024 78.1679 75.3149 71.5805Z" fill="#403231"/>
<path d="M75.3161 71.5805C74.6151 70.8795 73.8482 70.2771 73.0315 69.7587C69.2335 71.8323 61.9041 76.7069 59.8316 84.3073C58.9298 87.6152 55.733 91.5493 50.5897 95.6808C47.5869 98.0937 44.7112 99.9257 43.4055 100.723C43.7923 101.245 44.2155 101.744 44.684 102.213C45.3306 102.859 46.0328 103.425 46.7792 103.918C51.1977 101.113 61.9575 93.5856 64.165 85.4894C66.0753 78.4845 74.3349 74.0739 76.5458 73.0042C76.1726 72.5062 75.7642 72.0297 75.3161 71.5805Z" fill="#5C3A2F"/>
</svg>
